ply
format ascii 1.0
comment Created by Blender 2.70 (sub 0) - www.blender.org, source file: 'background.blend'
element vertex 20
property float x
property float y
property float z
property float nx
property float ny
property float nz
property float s
property float t
element face 10
property list uchar uint vertex_indices
end_header
3.200000 1.800000 0.199996 -0.000001 0.000000 -1.000000 0.000100 0.999900
3.200000 -1.800000 0.199996 -0.000001 0.000000 -1.000000 0.000100 0.000100
-3.200000 -1.800000 0.200004 -0.000001 0.000000 -1.000000 0.999900 0.000100
-3.200000 1.800000 0.200004 1.000000 0.000000 -0.000001 0.003184 1.001504
-3.200000 -1.800000 0.200004 1.000000 0.000000 -0.000001 0.003184 0.001622
-3.200000 -1.800000 -0.199996 1.000000 0.000000 -0.000001 0.225742 0.001621
3.200000 -1.800000 0.199996 -0.000000 1.000000 0.000000 0.999900 0.875100
3.200000 -1.800000 -0.200004 -0.000000 1.000000 0.000000 0.999900 0.999900
-3.200000 -1.800000 -0.199996 -0.000000 1.000000 0.000000 0.000100 0.999900
3.200000 1.800000 0.199996 -1.000000 0.000000 0.000001 0.901220 0.000460
3.200000 1.800000 -0.200004 -1.000000 0.000000 0.000001 0.998779 0.000460
3.200000 -1.800000 -0.200004 -1.000000 0.000000 0.000001 0.998779 1.000342
3.200000 1.800000 -0.200004 0.000000 -1.000000 -0.000000 0.001544 0.148293
3.200000 1.800000 0.199996 0.000000 -1.000000 -0.000000 0.001544 -0.001417
-3.200000 1.800000 0.200004 0.000000 -1.000000 -0.000000 1.001417 -0.001417
-3.200000 1.800000 0.200004 -0.000001 0.000000 -1.000000 0.999900 0.999900
-3.200000 1.800000 -0.199996 1.000000 0.000000 -0.000001 0.225742 1.001503
-3.200000 -1.800000 0.200004 -0.000000 1.000000 -0.000000 0.000100 0.875100
3.200000 -1.800000 0.199996 -1.000000 0.000000 0.000001 0.901220 1.000342
-3.200000 1.800000 -0.199996 -0.000000 -1.000000 -0.000000 1.001417 0.148292
3 0 1 2
3 3 4 5
3 6 7 8
3 9 10 11
3 12 13 14
3 15 0 2
3 16 3 5
3 17 6 8
3 18 9 11
3 19 12 14
